<?xml version="1.0" encoding="UTF-8" standalone="no"?>
<svg
   width="16"
   height="16"
   fill="currentColor"
   class="bi bi-border-outer"
   viewBox="0 0 15.999999 16"
   version="1.1"
   id="svg2"
   sodipodi:docname="border-wide-outer.svg"
   inkscape:export-filename="border-outer.svg"
   inkscape:export-xdpi="96"
   inkscape:export-ydpi="96"
   xmlns:inkscape="http://www.inkscape.org/namespaces/inkscape"
   xmlns:sodipodi="http://sodipodi.sourceforge.net/DTD/sodipodi-0.dtd"
   xmlns="http://www.w3.org/2000/svg"
   xmlns:svg="http://www.w3.org/2000/svg">
  <defs
     id="defs2" />
  <sodipodi:namedview
     id="namedview2"
     pagecolor="#ffffff"
     bordercolor="#000000"
     borderopacity="0.25"
     inkscape:showpageshadow="2"
     inkscape:pageopacity="0.0"
     inkscape:pagecheckerboard="0"
     inkscape:deskcolor="#d1d1d1">
    <inkscape:page
       x="0"
       y="0"
       width="15.999999"
       height="16"
       id="page2"
       margin="0"
       bleed="0" />
  </sodipodi:namedview>
  <path
     d="m 7.5,1.906 v 0.938 h 1 V 1.906 Z m 0,1.875 v 0.938 h 1 V 3.78 h -1 z m 0,1.875 v 0.938 h 1 V 5.656 Z M 1.906,8.5 h 0.938 v -1 H 1.906 Z m 1.875,0 h 0.938 v -1 H 3.78 v 1 z m 1.875,0 h 0.938 v -1 H 5.656 Z m 2.813,0 V 8.4690133 H 8.5 V 7.53 H 8.4690133 V 7.5 H 7.53 V 7.530987 H 7.5 v 0.938 h 0.030987 v 0.030987 z m 0.937,0 h 0.938 v -1 H 9.406 Z m 1.875,0 h 0.938 v -1 h -0.938 z m 1.875,0 h 0.938 v -1 H 13.156 Z M 7.5,9.406 v 0.938 h 1 V 9.406 Z m 0,1.875 v 0.938 h 1 v -0.938 z m 0,1.875 v 0.938 h 1 v -0.938 z"
     id="path1"
     style="stroke-width:1" />
  <path
     d="M 0,0 V 16 H 16 V 0 Z M 2.0053333,2.0053333 H 13.994667 V 13.994667 H 2.0053333 Z"
     id="path2"
     style="stroke-width:1"
     sodipodi:nodetypes="cccccccccc" />
</svg>
